<svg xmlns="http://www.w3.org/2000/svg" viewBox="0 0 1024 1024" fill="currentColor">
<g transform="translate(0,1024) scale(0.1,-0.1)">
<path d="M7985 9645 c-177 -45 -335 -174 -433 -355 -70 -130 -80 -152 -107
-240 -9 -30 -23 -69 -31 -87 -8 -17 -14 -40 -14 -51 0 -11 -10 -60 -21 -109
-47 -196 -98 -633 -118 -1014 -5 -80 -13 -176 -20 -212 -25 -151 -32 -196 -41
-272 -5 -44 -13 -93 -19 -108 -6 -16 -11 -44 -11 -63 0 -19 -11 -74 -24 -122
-14 -48 -29 -109 -35 -137 -24 -113 -43 -191 -60 -244 -11 -31 -22 -72 -26
-91 -16 -82 -76 -269 -111 -348 -13 -29 -24 -56 -24 -60 0 -16 -62 -158 -76
-173 -7 -8 -14 -20 -14 -26 0 -17 -51 -104 -96 -163 -45 -59 -235 -248 -349
-345 -38 -33 -76 -67 -85 -75 -8 -9 -37 -31 -63 -49 -26 -19 -47 -37 -47 -41
0 -11 -60 -41 -70 -35 -6 3 -5 16 2 33 6 15 15 70 19 122 4 52 13 122 20 155
17 82 18 617 1 700 -7 33 -17 96 -22 141 -5 44 -17 107 -26 140 -9 32 -20 79
-25 104 -6 25 -14 53 -20 63 -5 10 -18 40 -29 68 -11 28 -37 76 -57 107 -20
31 -46 73 -56 92 -11 19 -32 51 -48 71 -16 20 -29 40 -29 43 0 4 -5 12 -10 19
-6 7 -31 41 -58 76 -26 36 -62 84 -79 107 -49 65 -426 440 -523 520 -47 39
-91 78 -99 87 -7 10 -19 17 -26 17 -7 0 -18 6 -24 14 -14 16 -214 169 -276
210 -22 15 -71 49 -110 76 -38 28 -88 62 -110 76 -22 15 -66 44 -97 65 -32 22
-61 39 -64 39 -3 0 -45 24 -93 54 -48 30 -115 68 -148 85 -34 17 -76 41 -95
53 -33 23 -386 200 -542 273 -169 79 -558 236 -631 254 -17 4 -40 13 -52 19
-12 7 -30 12 -40 12 -11 0 -48 12 -84 26 -35 14 -80 30 -99 34 -19 5 -84 23
-145 40 -102 30 -242 64 -520 126 -60 14 -150 29 -200 34 -49 5 -119 14 -155
21 -43 7 -196 12 -445 12 -321 1 -388 -1 -435 -15 -30 -9 -71 -19 -91 -22 -21
-4 -53 -18 -73 -31 -20 -14 -41 -25 -45 -25 -19 0 -125 -128 -149 -180 -90
-195 -89 -290 1 -555 11 -33 31 -77 44 -97 13 -21 23 -42 23 -46 0 -5 13 -28
30 -50 16 -23 30 -45 30 -49 0 -8 81 -112 130 -167 69 -78 186 -193 260 -255
41 -34 101 -86 134 -114 88 -78 175 -147 261 -207 20 -14 53 -38 74 -55 38
-30 121 -91 149 -110 43 -28 261 -187 288 -209 18 -14 35 -26 39 -26 4 0 41
-27 82 -60 41 -33 77 -60 81 -60 4 0 21 -13 38 -28 18 -15 60 -49 94 -77 35
-27 90 -73 124 -100 33 -28 73 -59 87 -70 61 -47 138 -110 190 -158 31 -29 84
-77 119 -107 77 -68 133 -123 274 -270 168 -173 232 -250 334 -394 24 -33 52
-70 63 -82 10 -11 19 -23 19 -26 0 -4 27 -47 60 -96 33 -50 60 -93 60 -98 0
-4 11 -22 25 -40 14 -18 25 -35 25 -37 0 -2 20 -35 45 -73 25 -37 45 -73 45
-79 0 -6 10 -26 23 -45 12 -19 32 -60 44 -90 46 -121 73 -196 73 -207 0 -7 7
-33 16 -59 21 -64 11 -72 -63 -49 -109 33 -233 75 -251 84 -19 10 -167 56
-227 70 -22 5 -60 17 -85 26 -48 18 -133 40 -215 55 -27 5 -81 19 -120 30 -38
12 -104 25 -145 30 -41 4 -88 13 -103 19 -16 6 -54 11 -86 11 -32 0 -81 4
-110 10 -347 66 -867 67 -1094 3 -47 -13 -65 -25 -90 -57 -50 -64 -57 -82 -57
-144 0 -80 26 -117 192 -272 317 -297 600 -590 749 -775 35 -44 68 -85 74 -92
44 -50 235 -342 235 -359 0 -7 6 -19 13 -26 6 -7 34 -47 61 -88 100 -154 169
-256 193 -285 41 -51 91 -118 120 -160 54 -78 200 -248 335 -389 49 -50 88
-96 88 -102 0 -14 -33 -43 -102 -87 -31 -21 -60 -42 -63 -47 -4 -6 -32 -23
-63 -39 -31 -16 -66 -38 -76 -50 -11 -12 -24 -21 -30 -21 -6 -1 -29 -9 -51
-20 -69 -33 -89 -28 -167 48 -291 279 -341 315 -434 313 -128 -1 -216 -85
-216 -206 0 -76 29 -131 107 -200 99 -88 265 -252 265 -262 0 -4 -41 -41 -90
-82 -160 -132 -189 -179 -175 -290 6 -47 13 -61 57 -107 42 -44 59 -55 102
-64 64 -13 129 -1 181 34 112 76 294 239 337 302 12 18 38 39 58 48 251 106
390 187 598 348 48 37 96 68 107 68 11 0 31 -9 45 -20 14 -11 36 -28 49 -38
l23 -18 -11 -154 c-17 -221 -28 -326 -35 -338 -4 -6 -11 -37 -17 -69 -6 -32
-23 -80 -37 -106 -30 -54 -30 -54 -147 -28 -27 6 -75 16 -105 22 -30 7 -100
25 -154 41 -54 16 -108 27 -120 25 -128 -31 -188 -100 -187 -216 0 -149 89
-222 326 -266 68 -12 215 -53 224 -61 10 -9 -1 -88 -14 -115 -8 -15 -15 -37
-15 -48 0 -11 -11 -33 -24 -49 -30 -35 -56 -105 -56 -152 0 -114 99 -212 215
-214 96 -1 203 90 256 219 6 17 18 44 25 62 8 17 14 39 14 50 1 10 14 56 30
103 17 47 30 106 30 132 0 70 27 173 59 226 54 88 126 305 142 427 27 206 27
203 51 191 7 -3 36 -20 63 -36 28 -16 61 -35 75 -42 14 -6 32 -17 40 -24 15
-12 131 -74 240 -129 30 -15 66 -33 80 -40 71 -37 89 -46 130 -63 25 -11 75
-34 113 -51 37 -17 70 -31 73 -31 3 0 20 -7 37 -15 39 -18 112 -44 152 -54 17
-5 50 -17 75 -29 25 -11 77 -30 115 -43 39 -12 95 -31 125 -41 67 -23 125 -40
250 -73 52 -13 120 -32 150 -40 68 -20 169 -42 275 -60 44 -7 106 -21 139 -29
32 -9 100 -21 151 -26 51 -5 105 -14 119 -20 15 -5 48 -10 74 -10 51 0 257
-24 362 -42 39 -7 261 -13 561 -15 l497 -4 49 25 c72 36 110 71 141 130 26 49
27 56 25 201 -1 83 -6 182 -13 220 -6 39 -15 104 -20 145 -4 41 -16 111 -26
155 -9 44 -22 107 -28 140 -6 33 -15 66 -20 73 -4 7 -16 46 -26 85 -22 89 -45
164 -74 242 -31 81 -46 123 -58 163 -5 19 -20 53 -34 77 -13 24 -24 49 -24 56
0 16 -94 210 -196 407 -46 87 -43 95 42 130 105 43 127 54 234 107 133 66 232
122 318 178 37 24 105 69 152 99 47 31 105 72 130 91 25 20 65 52 90 71 107
84 141 114 244 214 139 136 324 345 338 382 4 8 28 42 55 75 26 33 60 79 75
102 26 40 128 271 128 290 0 5 11 32 24 60 14 27 28 66 31 86 4 21 11 40 16
43 5 3 9 16 9 29 0 13 14 62 30 108 17 47 30 95 30 106 0 12 6 47 14 79 8 31
22 104 32 162 9 58 21 121 26 140 27 101 33 1045 8 1225 -5 33 -18 128 -29
210 -26 187 -50 331 -61 370 -13 45 -40 150 -50 198 -21 99 -39 166 -59 222
-12 33 -44 130 -72 215 -28 85 -54 160 -59 165 -4 6 -24 54 -44 109 -20 54
-45 115 -55 135 -18 34 -58 120 -81 173 -5 13 -14 30 -20 38 -5 8 -20 38 -33
65 -34 72 -113 218 -163 302 -24 40 -44 75 -44 78 0 3 -17 29 -39 58 -21 29
-41 59 -45 67 -7 17 -61 100 -125 190 -112 160 -268 272 -418 300 -75 13 -186
11 -248 -5z m217 -468 c47 -33 124 -122 168 -196 14 -24 34 -55 46 -69 27 -35
123 -190 164 -267 81 -151 159 -305 180 -355 40 -98 47 -114 73 -170 14 -30
29 -67 33 -83 3 -15 10 -30 15 -33 5 -3 9 -15 9 -26 0 -12 13 -51 29 -87 34
-79 70 -181 82 -236 5 -22 16 -53 23 -70 8 -16 19 -48 24 -70 6 -22 16 -62 22
-90 7 -27 16 -70 21 -95 4 -25 19 -89 33 -143 14 -53 26 -116 26 -139 0 -24 7
-76 15 -118 29 -155 57 -682 49 -940 -5 -159 -27 -409 -46 -515 -5 -33 -14
-85 -18 -115 -4 -30 -19 -95 -34 -145 -15 -49 -34 -112 -42 -140 -25 -90 -45
-149 -53 -160 -5 -5 -12 -21 -16 -35 -4 -14 -18 -47 -30 -75 -12 -27 -25 -58
-29 -69 -3 -10 -44 -75 -91 -145 -84 -126 -187 -254 -274 -342 -60 -61 -244
-223 -310 -274 -29 -22 -76 -58 -104 -81 -29 -22 -75 -53 -102 -69 -28 -16
-59 -36 -70 -45 -45 -39 -484 -264 -548 -281 -23 -6 -59 -20 -79 -30 -49 -25
-66 -24 -78 4 -5 12 -23 40 -40 62 -16 22 -42 58 -58 81 -42 62 -273 327 -347
399 -202 195 -375 332 -525 417 -25 14 -74 42 -108 62 -35 20 -68 36 -73 36
-25 0 -89 42 -89 58 0 10 53 61 127 122 69 58 145 121 168 140 23 19 79 64
125 100 46 36 100 81 120 100 21 19 68 61 106 92 80 66 292 282 347 353 55 71
119 173 142 225 10 25 29 61 40 80 12 19 36 76 54 125 19 50 37 95 42 101 15
18 126 366 144 449 9 44 29 123 45 175 30 105 47 177 59 260 5 30 14 75 20
100 6 25 18 88 26 140 9 52 21 111 27 130 6 19 14 78 18 130 4 52 17 187 28
300 11 113 25 268 31 345 6 77 15 167 20 200 5 33 14 110 20 170 7 61 18 142
26 180 8 39 18 93 24 120 11 58 53 206 70 250 57 145 170 254 246 239 17 -3
51 -20 77 -37z m-6632 -220 c52 -8 118 -20 145 -25 28 -6 79 -16 115 -22 87
-13 267 -54 360 -80 41 -12 100 -28 130 -36 30 -9 82 -25 115 -36 33 -11 81
-26 107 -34 25 -7 56 -17 67 -23 11 -6 29 -11 41 -11 11 0 50 -13 85 -30 35
-16 68 -30 72 -30 12 0 145 -50 173 -65 14 -8 44 -20 65 -28 187 -68 648 -292
853 -415 29 -18 56 -32 59 -32 3 0 21 -11 39 -25 18 -14 43 -30 56 -35 13 -6
35 -18 49 -28 15 -9 66 -42 113 -72 48 -30 98 -62 111 -70 79 -51 227 -158
349 -255 42 -33 90 -70 107 -82 40 -29 284 -251 358 -325 93 -95 224 -247 269
-313 14 -22 39 -55 55 -74 16 -19 35 -49 43 -66 7 -17 20 -37 28 -44 26 -22
109 -204 123 -271 18 -84 40 -283 48 -435 12 -217 -31 -671 -80 -835 -9 -30
-23 -77 -30 -105 -31 -117 -44 -155 -63 -192 -11 -21 -30 -63 -42 -93 -12 -30
-33 -69 -46 -87 -13 -17 -24 -35 -24 -39 0 -4 -10 -21 -23 -38 -61 -83 -78
-182 -41 -252 47 -92 128 -134 259 -134 50 0 108 -5 130 -11 22 -5 58 -15 80
-20 22 -6 55 -19 74 -30 18 -11 61 -31 95 -45 33 -14 75 -37 93 -50 17 -13 35
-24 39 -24 16 0 236 -175 335 -267 191 -176 403 -425 513 -602 15 -25 41 -62
56 -81 15 -19 35 -51 45 -70 10 -19 33 -58 51 -85 56 -85 194 -358 279 -550
42 -94 55 -133 48 -145 -6 -8 -34 -28 -64 -43 -56 -29 -66 -35 -134 -77 -93
-57 -246 -201 -317 -298 -46 -62 -129 -227 -153 -301 -9 -29 -19 -78 -22 -107
-8 -79 -18 -84 -133 -72 -88 9 -235 32 -370 58 -30 6 -82 15 -115 21 -100 17
-246 50 -335 75 -30 9 -71 20 -90 25 -19 5 -62 15 -95 23 -33 8 -85 24 -115
35 -30 12 -61 21 -68 21 -8 0 -28 6 -45 14 -18 7 -59 23 -92 34 -129 44 -253
90 -306 116 -31 14 -59 26 -63 26 -4 0 -67 29 -141 65 -74 36 -141 65 -149 65
-7 0 -19 7 -26 15 -7 8 -19 15 -27 15 -8 0 -29 11 -46 23 -18 13 -61 39 -97
57 -36 18 -72 38 -80 45 -8 7 -35 23 -59 36 -53 29 -62 34 -136 83 -144 93
-196 130 -415 301 -25 19 -50 38 -55 42 -129 98 -548 521 -625 632 -14 19 -32
42 -41 51 -25 23 -139 178 -139 188 0 5 -7 15 -16 23 -13 10 -93 132 -129 197
-5 10 -26 42 -46 72 -20 30 -42 67 -50 81 -26 48 -74 121 -131 199 -32 44 -58
83 -58 88 0 5 -7 15 -15 22 -9 7 -29 32 -45 56 -51 76 -320 384 -459 527 -82
84 -131 141 -125 147 11 10 364 -3 383 -15 7 -4 58 -11 114 -16 56 -5 138 -18
182 -30 44 -12 105 -25 135 -29 69 -9 224 -47 270 -66 19 -8 69 -23 110 -34
116 -30 171 -47 225 -68 28 -11 87 -32 133 -46 45 -14 101 -35 124 -46 23 -11
48 -20 56 -20 7 0 23 -5 35 -12 12 -7 58 -25 102 -42 69 -25 97 -30 202 -33
138 -5 151 -1 221 66 59 56 72 93 72 198 0 98 -16 180 -85 433 -13 47 -26 99
-30 115 -11 48 -94 255 -127 315 -17 30 -46 84 -65 120 -19 36 -49 88 -67 115
-18 28 -78 118 -132 200 -88 135 -131 195 -290 400 -121 158 -262 301 -564
574 -211 191 -219 199 -415 352 -44 34 -103 81 -131 103 -29 23 -62 48 -75 56
-13 8 -35 27 -50 43 -15 15 -30 27 -33 27 -4 0 -69 46 -145 103 -76 56 -173
127 -216 157 -546 386 -862 668 -997 890 -58 97 -78 149 -78 208 0 41 5 53 33
80 53 51 143 62 477 57 166 -2 313 -10 370 -18z m6034 -7174 c3 -10 10 -47 16
-83 7 -36 18 -85 25 -110 8 -25 19 -97 24 -160 10 -105 9 -116 -7 -128 -13
-10 -66 -13 -234 -10 -119 2 -220 6 -224 10 -4 5 -6 29 -5 55 3 90 134 281
251 365 115 83 144 94 154 61z M6565 2491 c-122 -68 -146 -255 -43 -347 31
-28 100 -54 143 -54 40 0 108 25 148 54 40 29 67 92 67 158 0 89 -39 152 -122
194 -64 33 -127 31 -193 -5z"/>
</g>
</svg>
